<svg width="36" height="36" viewBox="0 0 36 36" fill="none" xmlns="http://www.w3.org/2000/svg">
<path d="M16.5 25.5H19.5V19.5H25.5V16.5H19.5V10.5H16.5V16.5H10.5V19.5H16.5V25.5ZM18 33C15.925 33 13.975 32.6125 12.15 31.8375C10.325 31.0375 8.7375 29.9625 7.3875 28.6125C6.0375 27.2625 4.9625 25.675 4.1625 23.85C3.3875 22.025 3 20.075 3 18C3 15.925 3.3875 13.975 4.1625 12.15C4.9625 10.325 6.0375 8.7375 7.3875 7.3875C8.7375 6.0375 10.325 4.975 12.15 4.2C13.975 3.4 15.925 3 18 3C20.075 3 22.025 3.4 23.85 4.2C25.675 4.975 27.2625 6.0375 28.6125 7.3875C29.9625 8.7375 31.025 10.325 31.8 12.15C32.6 13.975 33 15.925 33 18C33 20.075 32.6 22.025 31.8 23.85C31.025 25.675 29.9625 27.2625 28.6125 28.6125C27.2625 29.9625 25.675 31.0375 23.85 31.8375C22.025 32.6125 20.075 33 18 33ZM18 30C21.35 30 24.1875 28.8375 26.5125 26.5125C28.8375 24.1875 30 21.35 30 18C30 14.65 28.8375 11.8125 26.5125 9.4875C24.1875 7.1625 21.35 6 18 6C14.65 6 11.8125 7.1625 9.4875 9.4875C7.1625 11.8125 6 14.65 6 18C6 21.35 7.1625 24.1875 9.4875 26.5125C11.8125 28.8375 14.65 30 18 30Z" fill="#1D1B20"/>
</svg>
