<svg width="24" height="24" viewBox="0 0 24 24" fill="none" xmlns="http://www.w3.org/2000/svg">
<path d="M6.37689 1.68188C10.485 1.68188 11.9944 5.88001 11.9944 5.88001C11.9944 5.88001 13.4831 1.68188 17.6194 1.68188C20.7281 1.68188 24.2719 4.14563 22.9631 9.74626C21.6544 15.3469 11.9831 22.3238 11.9831 22.3238C11.9831 22.3238 2.34752 15.3469 1.03689 9.74626C-0.271858 4.14563 3.01689 1.68188 6.37689 1.68188Z" fill="#F44336"/>
<path d="M18.2531 2.10001C15.0281 2.10001 13.4269 5.56688 12.9094 6.97126C12.8363 7.17188 12.5569 7.17751 12.4725 6.98251L12 5.87813C12.6656 3.75188 14.4956 1.68188 17.6194 1.68188C18.9131 1.68188 20.28 2.10938 21.3431 3.01126C20.4038 2.39438 19.3031 2.10001 18.2531 2.10001Z" fill="#CC3333"/>
<path d="M6.37687 1.68188C7.36875 1.68188 8.2725 1.89751 8.9775 2.33251C8.4825 2.14126 7.86937 2.10001 7.26187 2.10001C4.2225 2.10001 1.50187 4.40439 2.73 9.73126C3.78375 14.3044 9.94125 19.8525 11.8219 21.9694C11.9419 22.1044 11.9831 22.3219 11.9831 22.3219C11.9831 22.3219 2.3475 15.345 1.03687 9.74439C-0.271878 4.14563 3.01125 1.68188 6.37687 1.68188Z" fill="#CC3333"/>
<path d="M20.805 4.65377C20.1019 3.77627 18.8456 3.05064 17.7806 3.88689C17.205 4.33877 17.4563 5.26502 17.9719 5.65502C18.7219 6.22502 19.3744 6.56814 19.8319 7.46064C20.1056 7.99689 20.2706 8.58377 20.355 9.18189C20.3888 9.41814 20.6981 9.47627 20.8144 9.26814C21.6056 7.86564 21.8306 5.93439 20.805 4.65377Z" fill="#FF8A80"/>
<path d="M9.53252 6.49876C9.86252 6.49876 10.095 6.18001 9.97502 5.87251C9.7519 5.30626 9.46315 4.75876 9.11627 4.27126C8.60252 3.55126 7.62565 3.13126 7.0069 3.56814C6.37315 4.01439 6.45565 4.90689 6.90002 5.33814C7.8544 6.26251 9.05815 6.49876 9.53252 6.49876Z" fill="#FF8A80"/>
</svg>
