<svg width="23" height="23" viewBox="0 0 23 23" fill="none" xmlns="http://www.w3.org/2000/svg">
<path d="M2.875 5.74984H4.79167M4.79167 5.74984H20.125M4.79167 5.74984V19.1665C4.79167 19.6748 4.9936 20.1623 5.35305 20.5218C5.71249 20.8812 6.2 21.0832 6.70833 21.0832H16.2917C16.8 21.0832 17.2875 20.8812 17.647 20.5218C18.0064 20.1623 18.2083 19.6748 18.2083 19.1665V5.74984M7.66667 5.74984V3.83317C7.66667 3.32484 7.8686 2.83733 8.22805 2.47788C8.58749 2.11844 9.075 1.9165 9.58333 1.9165H13.4167C13.925 1.9165 14.4125 2.11844 14.772 2.47788C15.1314 2.83733 15.3333 3.32484 15.3333 3.83317V5.74984M9.58333 10.5415V16.2915M13.4167 10.5415V16.2915" stroke="#1E1E1E" stroke-width="2" stroke-linecap="round" stroke-linejoin="round"/>
</svg>
